<?xml version="1.0" encoding="UTF-8"?>
<svg version="1.1" xmlns="http://www.w3.org/2000/svg" width="269" height="187">
<path d="M0 0 C9.97934865 -0.25584828 19.95790674 -0.4508056 29.93987751 -0.56993389 C34.576094 -0.62713773 39.21005333 -0.70459921 43.8449707 -0.82983398 C48.32558728 -0.95012982 52.80404606 -1.01528085 57.28615379 -1.04364967 C58.98834376 -1.06384052 60.69042688 -1.10327277 62.39168739 -1.16303062 C76.40010498 -1.63512285 76.40010498 -1.63512285 81.42660522 2.39682007 C84.23915638 5.03134061 86.59953624 7.98868317 89 11 C90.32298073 12.22214795 91.67082413 13.41918819 93.0625 14.5625 C97.12055113 18.02304667 100.81620167 21.8017651 104.5625 25.59375 C106.65000635 27.65449345 108.77169223 29.59515626 111 31.5 C115.07623219 34.98452107 118.79550873 38.78081981 122.5625 42.59375 C124.65000635 44.65449345 126.77169223 46.59515626 129 48.5 C133.07623219 51.98452107 136.79550873 55.78081981 140.5625 59.59375 C142.65000635 61.65449345 144.77169223 63.59515626 147 65.5 C151.06580631 68.97560862 154.77703706 72.76005147 158.53125 76.56640625 C161.37426596 79.36893622 164.34164765 81.97141515 167.40625 84.52734375 C169 86 169 86 171 89 C167.51385738 92.58419039 163.98845345 96.06117525 160.1875 99.3125 C156.97666245 102.07618029 153.97732835 104.98619596 151 108 C147.47893677 111.56400302 143.86813992 114.90304168 140.0625 118.15625 C137.61075311 120.34796313 135.31114427 122.66067104 133 125 C129.47893677 128.56400302 125.86813992 131.90304168 122.0625 135.15625 C119.61075311 137.34796313 117.31114427 139.66067104 115 142 C112.10408042 144.93118191 109.19757429 147.76403174 106.0625 150.4375 C102.19777163 153.74008606 98.64651769 157.32396169 95.07983398 160.93969727 C91.79859099 164.24840315 88.41608163 167.36796656 84.8515625 170.3671875 C82.84581585 172.05141072 82.84581585 172.05141072 80.86726379 174.5665741 C77.30658046 177.58850012 74.73153367 177.68031249 70.2722168 177.56762695 C69.51070816 177.56835709 68.74919952 177.56908722 67.96461487 177.56983948 C65.45874687 177.56636835 62.95476015 177.52753318 60.44921875 177.48828125 C58.70759598 177.47895135 56.96596006 177.47183607 55.22431946 177.46684265 C50.64878874 177.4477866 46.07405642 177.39869828 41.49884033 177.34332275 C36.82681071 177.29209992 32.15465159 177.26932216 27.48242188 177.24414062 C18.32126453 177.19057782 9.16069875 177.10528222 0 177 C0.95186693 175.88280721 1.90468914 174.76642829 2.85791016 173.65039062 C3.38840973 173.02861938 3.9189093 172.40684814 4.46548462 171.76623535 C9.50080377 165.97055628 15.14852035 160.80126827 20.96875 155.8125 C23.23638572 153.7890712 25.3657695 151.66346653 27.5 149.5 C30.20803565 146.75499458 32.94169249 144.1272909 35.875 141.625 C39.24557721 138.73785219 42.38504207 135.65753382 45.5 132.5 C49.18994221 128.75969175 52.97503696 125.21760652 56.97265625 121.80859375 C60.31743054 118.82471996 63.41335157 115.59380268 66.5625 112.40625 C69.24767712 109.75549822 72.05393786 107.30761403 74.921875 104.859375 C78.33527696 101.80527851 81.50643054 98.51251391 84.703125 95.234375 C86.71010478 93.28200692 88.7172021 91.6126187 91 90 C90.59725288 85.5801085 87.59173929 83.47298819 84.4375 80.75 C83.33590934 79.77233014 82.23565168 78.79315629 81.13671875 77.8125 C80.32920166 77.09513672 80.32920166 77.09513672 79.50537109 76.36328125 C77.51489793 74.56068603 75.62783583 72.66906576 73.75 70.75 C71.2942496 68.25382573 68.78432626 65.90290895 66.125 63.625 C62.93317491 60.88378551 59.95697023 57.99314112 57 55 C54.10408042 52.06881809 51.19757429 49.23596826 48.0625 46.5625 C44.19461192 43.25721383 40.6407893 39.67005004 37.07104492 36.05151367 C33.82651299 32.77995805 30.46391322 29.73044025 26.9609375 26.7421875 C23.90908012 24.03077636 21.08855234 21.09662853 18.22265625 18.19140625 C16.1879405 16.1852981 14.10414563 14.29886484 11.9375 12.4375 C7.75351243 8.84280646 3.73017988 5.06748338 0 1 C0 0.67 0 0.34 0 0 Z " fill="#1199E0" transform="translate(6,5)"/>
<path d="M0 0 C6.33036349 4.30464717 11.51244738 9.39126371 16.85717773 14.82592773 C20.44810647 18.47084815 24.10362262 21.92490564 28.01171875 25.23046875 C31.12129568 27.99793112 34.007829 30.98744763 36.92993164 33.94946289 C40.17412846 37.22069938 43.53643993 40.269861 47.0390625 43.2578125 C50.09366353 45.97166122 52.91661543 48.90863752 55.78515625 51.81640625 C57.77659461 53.77974671 59.81302578 55.62079669 61.9375 57.4375 C66.02359489 60.93870655 69.75935677 64.74408731 73.5390625 68.5703125 C76.35936606 71.35480268 79.30164656 73.9515684 82.3046875 76.53515625 C84.31254012 78.27005195 86.2357715 80.01524294 88 82 C88 82.66 88 83.32 88 84 C78.08158935 84.1624399 68.16349689 84.28669486 58.24402523 84.3626852 C53.63754617 84.39916393 49.03197941 84.4486138 44.42602539 84.52807617 C39.97797798 84.60433102 35.530806 84.6460306 31.08215523 84.6641407 C29.38802881 84.67704025 27.69394848 84.70223165 26.00019646 84.7401104 C12.70902524 85.02543547 12.70902524 85.02543547 8.43431091 82.46055603 C6.69056074 80.72857139 5.35229625 79.04248505 4 77 C2.74550292 75.87730749 1.47817641 74.76840508 0.1875 73.6875 C-3.02333755 70.92381971 -6.02267165 68.01380404 -9 65 C-11.89591958 62.06881809 -14.80242571 59.23596826 -17.9375 56.5625 C-22.33741599 52.80647415 -26.34681047 48.68423299 -30.38671875 44.55078125 C-32.81463405 42.18093268 -35.31301481 40.0672841 -38 38 C-36.40733765 33.79935306 -33.27531394 31.27615271 -30 28.375 C-25.78861693 24.57431282 -21.66968176 20.73161305 -17.6875 16.6875 C-14.1755977 13.12998858 -10.55819544 9.78878494 -6.76171875 6.5390625 C-4.38847084 4.46575944 -2.19312738 2.26166261 0 0 Z " fill="#0662BD" transform="translate(181,98)"/>
<path d="M0 0 C1.71490449 0.01307198 3.4298353 0.02302859 5.14477539 0.03001404 C9.63679445 0.0566145 14.1272039 0.1252646 18.61859131 0.20294189 C23.21034984 0.27482634 27.80237103 0.30657906 32.39453125 0.34179688 C41.38872419 0.41664591 50.38172774 0.53596 59.375 0.68359375 C56.11493826 7.47582651 50.10601623 11.95379985 44.4765625 16.80078125 C42.18834889 18.85081649 40.03239418 20.99654467 37.875 23.18359375 C35.14670593 25.94919783 32.38983166 28.59646406 29.4375 31.12109375 C26.2646408 33.83978623 23.31161618 36.7111105 20.375 39.68359375 C17.47908042 42.61477566 14.57257429 45.44762549 11.4375 48.12109375 C8.08574927 50.9853171 4.96943244 54.04693091 1.875 57.18359375 C-1.81308776 60.92201365 -5.59333631 64.46519635 -9.59375 67.8671875 C-12.90661727 70.82965535 -15.95840416 74.04916946 -19.03515625 77.25390625 C-22.05467963 80.08670194 -25.21542436 82.33820635 -28.625 84.68359375 C-29.8934375 83.39775391 -29.8934375 83.39775391 -31.1875 82.0859375 C-36.53832709 76.68453399 -41.8618803 71.34661932 -47.6640625 66.42578125 C-51.00075246 63.46131169 -54.07936112 60.23675213 -57.21484375 57.0625 C-60.22397286 54.09238715 -63.36650454 51.37539435 -66.625 48.68359375 C-65.13578116 45.08531903 -63.12717853 43.13745857 -60.1875 40.62109375 C-56.31133469 37.22595328 -52.61846046 33.72752089 -49 30.05859375 C-45.3406867 26.35822223 -41.60961785 22.86679547 -37.65234375 19.4921875 C-34.38930517 16.58123016 -31.36199559 13.44050814 -28.3125 10.30859375 C-27.425625 9.44234375 -26.53875 8.57609375 -25.625 7.68359375 C-25.16536865 7.10161728 -24.7057373 6.51964081 -24.23217773 5.92002869 C-17.62710102 -1.41197984 -9.07637584 -0.20363294 0 0 Z " fill="#0A64BE" transform="translate(209.625,4.31640625)"/>
<path d="M0 0 C5.4144841 3.83936145 10.75195857 7.84924977 15 13 C15 13.66 15 14.32 15 15 C5.08158935 15.1624399 -4.83650311 15.28669486 -14.75597477 15.3626852 C-19.36245383 15.39916393 -23.96802059 15.4486138 -28.57397461 15.52807617 C-33.02202202 15.60433102 -37.469194 15.6460306 -41.91784477 15.6641407 C-43.61197119 15.67704025 -45.30605152 15.70223165 -46.99980354 15.7401104 C-60.2808979 16.02521915 -60.2808979 16.02521915 -64.51803589 13.49832153 C-66.26362095 11.75754139 -67.5944881 10.0160777 -69 8 C-70.11471299 6.98554629 -71.25987414 6.00319056 -72.4375 5.0625 C-73.283125 4.381875 -74.12875 3.70125 -75 3 C-72.13822943 1.56911472 -70.06624227 2.40008303 -67 3 C-67.99 3.495 -67.99 3.495 -69 4 C-69 4.66 -69 5.32 -69 6 C-68.401875 6.268125 -67.80375 6.53625 -67.1875 6.8125 C-65 8 -65 8 -63.75175476 9.54719543 C-61.1641885 11.69317395 -59.11080593 11.39969739 -55.78442383 11.43237305 C-54.5033223 11.45216721 -53.22222076 11.47196136 -51.90229797 11.49235535 C-50.50387722 11.49912514 -49.10545488 11.50557201 -47.70703125 11.51171875 C-46.27640739 11.52856354 -44.84579836 11.54671351 -43.41520691 11.56611633 C-39.65219758 11.61364482 -35.88924831 11.64343541 -32.1260376 11.66955566 C-28.28507623 11.69934705 -24.44432193 11.74588218 -20.60351562 11.79101562 C-13.06911309 11.877081 -5.53469555 11.94441153 2 12 C1.84660156 10.7315625 1.69320312 9.463125 1.53515625 8.15625 C1.40572632 7.08600586 1.40572632 7.08600586 1.27368164 5.99414062 C0.99259153 3.94601926 0.57895455 1.98498702 0 0 Z " fill="#4F86C3" transform="translate(254,167)"/>
<path d="M0 0 C0.33 0 0.66 0 1 0 C1 1.65 1 3.3 1 5 C35.155 4.505 35.155 4.505 70 4 C69.505 3.01 69.505 3.01 69 2 C70.65 2.33 72.3 2.66 74 3 C72.125 6.875 72.125 6.875 71 8 C68.56603981 8.09498646 66.16057048 8.12558417 63.72631836 8.11352539 C62.58493156 8.11374443 62.58493156 8.11374443 61.42048645 8.1139679 C58.89357702 8.11326862 56.36674038 8.10547555 53.83984375 8.09765625 C52.0924941 8.09579212 50.34514393 8.0943682 48.59779358 8.09336853 C43.98968066 8.08954293 39.38159905 8.07971229 34.77349854 8.06866455 C30.07491479 8.05845134 25.37632601 8.0538711 20.67773438 8.04882812 C11.45180913 8.03809005 2.22590716 8.02101313 -7 8 C-6.02133662 6.85373678 -5.04205413 5.70800212 -4.0625 4.5625 C-3.51722656 3.92441406 -2.97195312 3.28632813 -2.41015625 2.62890625 C-1.63204305 1.73008851 -0.84063472 0.84063472 0 0 Z " fill="#50AFDA" transform="translate(13,174)"/>
<path d="M0 0 C4.82675589 2.41337795 7.69984002 5.86062408 11 10 C7.47299715 13.6261998 3.90032831 17.13924755 0.0625 20.4375 C-4.17249602 24.08407192 -8.09693984 28.00351553 -12 32 C-12.33 30.68 -12.66 29.36 -13 28 C-12.01 28 -11.02 28 -10 28 C-9.67 26.02 -9.34 24.04 -9 22 C-8.34 22 -7.68 22 -7 22 C-6.67 21.01 -6.34 20.02 -6 19 C-3.36758121 16.44070395 -1.89357813 15.07942917 1.8125 14.75 C2.534375 14.8325 3.25625 14.915 4 15 C4.33 14.01 4.66 13.02 5 12 C5.66 12 6.32 12 7 12 C6.34 9.69 5.68 7.38 5 5 C3.68 4.67 2.36 4.34 1 4 C0.67 2.68 0.34 1.36 0 0 Z " fill="#279CD8" transform="translate(166,84)"/>
<path d="M0 0 C3.38708325 1.06451188 5.04049387 2.04148153 7.5625 4.625 C9.91028 7.46524315 9.91028 7.46524315 14 7 C14 7.99 14 8.98 14 10 C15.32 9.67 16.64 9.34 18 9 C18 11.64 18 14.28 18 17 C14.97328771 15.64526876 12.87863194 14.1260408 10.546875 11.77734375 C9.928125 11.15666016 9.309375 10.53597656 8.671875 9.89648438 C8.03765625 9.25001953 7.4034375 8.60355469 6.75 7.9375 C6.1003125 7.28716797 5.450625 6.63683594 4.78125 5.96679688 C0 1.14034598 0 1.14034598 0 0 Z " fill="#3772B8" transform="translate(150,58)"/>
<path d="M0 0 C0.33 1.32 0.66 2.64 1 4 C-0.60198888 5.46072532 -2.20667116 6.91849716 -3.8125 8.375 C-4.70582031 9.18710938 -5.59914062 9.99921875 -6.51953125 10.8359375 C-9 13 -9 13 -12 15 C-11.67 13.35 -11.34 11.7 -11 10 C-10.01 10 -9.02 10 -8 10 C-8.061875 8.9171875 -8.061875 8.9171875 -8.125 7.8125 C-7.98913607 4.75556157 -7.36326842 2.72653683 -6 0 C-3.50907189 -1.24546405 -2.58919267 -0.7767578 0 0 Z " fill="#1E9FE1" transform="translate(152,113)"/>
<path d="M0 0 C3.43998071 1.20864187 5.49924271 2.38557192 8 5 C8.99 5.33 9.98 5.66 11 6 C11 7.32 11 8.64 11 10 C11.70125 10.226875 12.4025 10.45375 13.125 10.6875 C16.69343613 12.31656867 19.06514511 14.40640731 22 17 C21.67 17.99 21.34 18.98 21 20 C16.47703554 16.19659806 12.06028095 12.28674071 7.6875 8.3125 C7.15995117 7.83707764 6.63240234 7.36165527 6.08886719 6.87182617 C3.69273175 4.68309317 1.81112144 2.71668216 0 0 Z " fill="#55AFD8" transform="translate(46,43)"/>
<path d="M0 0 C0.061875 0.61875 0.12375 1.2375 0.1875 1.875 C0.82851089 4.22677998 0.82851089 4.22677998 3.3125 5.3125 C6.07651653 6.019574 7.36660729 5.97533063 10 5 C9.9175 5.886875 9.835 6.77375 9.75 7.6875 C10.05208163 11.69008159 11.29727467 13.12835434 14 16 C11 16 11 16 9.1328125 14.390625 C8.47023437 13.68421875 7.80765625 12.9778125 7.125 12.25 C4.23447141 9.24214368 1.34626311 6.50969733 -2 4 C-1.34 2.68 -0.68 1.36 0 0 Z " fill="#3A7ABA" transform="translate(145,132)"/>
<path d="M0 0 C4.82675589 2.41337795 7.69984002 5.86062408 11 10 C9.88121617 11.17262904 8.75476949 12.33795138 7.625 13.5 C6.99851563 14.1496875 6.37203125 14.799375 5.7265625 15.46875 C4 17 4 17 2 17 C2 16.34 2 15.68 2 15 C2.66 15 3.32 15 4 15 C4.33 14.01 4.66 13.02 5 12 C5.66 12 6.32 12 7 12 C6.34 9.69 5.68 7.38 5 5 C3.68 4.67 2.36 4.34 1 4 C0.67 2.68 0.34 1.36 0 0 Z " fill="#5EB2D7" transform="translate(166,84)"/>
<path d="M0 0 C4.91935902 4.11619836 9.52647956 8.40410362 14 13 C13.34 13.66 12.68 14.32 12 15 C10.66070495 13.71451591 9.32871357 12.42141845 8 11.125 C7.2575 10.40570313 6.515 9.68640625 5.75 8.9453125 C4 7 4 7 4 5 C0.98968256 4.06576355 0.13349732 3.95550089 -3 5 C-2.67 4.01 -2.34 3.02 -2 2 C-1.34 2 -0.68 2 0 2 C0 1.34 0 0.68 0 0 Z " fill="#3B7BBB" transform="translate(206,121)"/>
<path d="M0 0 C5.66129431 4.69766975 10.85228904 9.74723372 16 15 C15.34 15.66 14.68 16.32 14 17 C11.84475774 14.92569173 9.70098609 12.84146179 7.5625 10.75 C6.64500977 9.87021484 6.64500977 9.87021484 5.70898438 8.97265625 C5.12568359 8.39902344 4.54238281 7.82539063 3.94140625 7.234375 C3.40201416 6.71069336 2.86262207 6.18701172 2.30688477 5.64746094 C0.82879242 3.78417546 0.40834789 2.32206478 0 0 Z " fill="#467EBA" transform="translate(223,137)"/>
<path d="M0 0 C0.33 1.32 0.66 2.64 1 4 C-0.45287661 5.33927721 -1.91247259 6.67126847 -3.375 8 C-4.59316406 9.11375 -4.59316406 9.11375 -5.8359375 10.25 C-8 12 -8 12 -10 12 C-10 12.66 -10 13.32 -10 14 C-10.66 13.67 -11.32 13.34 -12 13 C-9.91093035 9.13961564 -7.64201183 6.53447389 -4.3125 3.6875 C-3.50425781 2.99011719 -2.69601563 2.29273437 -1.86328125 1.57421875 C-1.24839844 1.05472656 -0.63351563 0.53523438 0 0 Z " fill="#3AA2D7" transform="translate(65,125)"/>
<path d="M0 0 C4.13621084 3.3810038 7.81316569 6.66590534 11 11 C8.66666667 11 6.33333333 11 4 11 C3.32880451 9.5437455 2.66318193 8.08492133 2 6.625 C1.62875 5.81289063 1.2575 5.00078125 0.875 4.1640625 C0 2 0 2 0 0 Z M1 8 C3 9 3 9 3 9 Z " fill="#3AA7DD" transform="translate(98,19)"/>
<path d="M0 0 C0.66 0.99 1.32 1.98 2 3 C-0.36292656 5.52588702 -1.66462511 6.88820837 -5 8 C-5.45375 8.845625 -5.9075 9.69125 -6.375 10.5625 C-6.91125 11.366875 -7.4475 12.17125 -8 13 C-10.6875 13.3125 -10.6875 13.3125 -13 13 C-8.66666667 8.66666667 -4.33333333 4.33333333 0 0 Z " fill="#41A5DA" transform="translate(32,156)"/>
<path d="M0 0 C0.66 0.33 1.32 0.66 2 1 C1.3503125 1.5878125 1.3503125 1.5878125 0.6875 2.1875 C-1.13858339 4.01043451 -1.13858339 4.01043451 -2.5 6.625 C-4 9 -4 9 -7 10 C-7 10.66 -7 11.32 -7 12 C-8.98 12.66 -10.96 13.32 -13 14 C-8.88380164 9.08064098 -4.59589638 4.47352044 0 0 Z " fill="#4D86BE" transform="translate(166,29)"/>
<path d="M0 0 C0.99 0 1.98 0 3 0 C3 0.66 3 1.32 3 2 C3.556875 2.268125 4.11375 2.53625 4.6875 2.8125 C5.8321875 3.4003125 5.8321875 3.4003125 7 4 C7.886875 4.4125 8.77375 4.825 9.6875 5.25 C12 7 12 7 12.8125 10.1875 C12.874375 11.115625 12.93625 12.04375 13 13 C8.11950075 9.0580583 3.9419417 4.88049925 0 0 Z " fill="#4AA7D5" transform="translate(24,22)"/>
<path d="M0 0 C0.66 0.33 1.32 0.66 2 1 C2 1.99 2 2.98 2 4 C1.01 4 0.02 4 -1 4 C-1.433125 4.928125 -1.433125 4.928125 -1.875 5.875 C-3 8 -3 8 -5 10 C-6.98821313 10.39764263 -8.98944339 10.73775349 -11 11 C-7.33333333 7.33333333 -3.66666667 3.66666667 0 0 Z " fill="#38A2D7" transform="translate(85,106)"/>
<path d="M0 0 C4.91935902 4.11619836 9.52647956 8.40410362 14 13 C13.34 13.66 12.68 14.32 12 15 C10.17799867 13.25904321 8.36770425 11.50822868 6.5625 9.75 C6.04623047 9.25886719 5.52996094 8.76773438 4.99804688 8.26171875 C0.34341896 3.69835805 0.34341896 3.69835805 0 0 Z " fill="#3DA0D5" transform="translate(152,70)"/>
<path d="M0 0 C2.64 0.33 5.28 0.66 8 1 C7.01 1.495 7.01 1.495 6 2 C6 2.66 6 3.32 6 4 C6.5775 4.226875 7.155 4.45375 7.75 4.6875 C10.5663661 6.33038023 12.08077114 8.39533227 14 11 C9.85878264 11 8.16365957 8.75914512 5.3125 6.0625 C4.80138672 5.59392578 4.29027344 5.12535156 3.76367188 4.64257812 C2.48385946 3.45503523 1.23873906 2.23032657 0 1 C0 0.67 0 0.34 0 0 Z " fill="#3371B1" transform="translate(179,169)"/>
<path d="M0 0 C2.64 1.98 5.28 3.96 8 6 C7.67 6.66 7.34 7.32 7 8 C6.01 8 5.02 8 4 8 C4.33 9.32 4.66 10.64 5 12 C4.01 12 3.02 12 2 12 C1.77213542 10.046875 1.54427083 8.09375 1.31640625 6.140625 C0.98698863 3.67008077 0.98698863 3.67008077 0 0 Z " fill="#2D74BA" transform="translate(254,167)"/>
<path d="M0 0 C0.66 0 1.32 0 2 0 C2 0.66 2 1.32 2 2 C2.66 2 3.32 2 4 2 C4.33 1.34 4.66 0.68 5 0 C5.66 0.33 6.32 0.66 7 1 C6.8125 2.8125 6.8125 2.8125 6 5 C3.4375 6.75 3.4375 6.75 1 8 C0.34 5.69 -0.32 3.38 -1 1 C-0.67 0.67 -0.34 0.34 0 0 Z " fill="#28A0D9" transform="translate(111,146)"/>
<path d="M0 0 C0.99 0.66 1.98 1.32 3 2 C0.03 4.97 -2.94 7.94 -6 11 C-6.33 9.68 -6.66 8.36 -7 7 C-5.68 6.67 -4.36 6.34 -3 6 C-3 4.35 -3 2.7 -3 1 C-2.01 1.33 -1.02 1.66 0 2 C0 1.34 0 0.68 0 0 Z " fill="#379FD5" transform="translate(147,117)"/>
<path d="M0 0 C-1.1427919 1.16964602 -2.28931715 2.33564556 -3.4375 3.5 C-4.07558594 4.1496875 -4.71367187 4.799375 -5.37109375 5.46875 C-7 7 -7 7 -8 7 C-8 5.02 -8 3.04 -8 1 C-4.85571151 -0.9090323 -3.47925125 -1.04523725 0 0 Z " fill="#286EBB" transform="translate(204,68)"/>
<path d="M0 0 C4.13621084 3.3810038 7.81316569 6.66590534 11 11 C8 11 8 11 6.2109375 9.609375 C5.30214844 8.68898438 5.30214844 8.68898438 4.375 7.75 C3.76398438 7.14671875 3.15296875 6.5434375 2.5234375 5.921875 C0.9257803 3.90636899 0.41127602 2.51211839 0 0 Z " fill="#53ACDA" transform="translate(116,36)"/>
<path d="M0 0 C-0.95421808 1.14926266 -1.91352045 2.29430541 -2.875 3.4375 C-3.40867188 4.07558594 -3.94234375 4.71367188 -4.4921875 5.37109375 C-6 7 -6 7 -8 8 C-8 6.68 -8 5.36 -8 4 C-7.01 4 -6.02 4 -5 4 C-5.66 3.67 -6.32 3.34 -7 3 C-6.67 2.01 -6.34 1.02 -6 0 C-3 -1 -3 -1 0 0 Z " fill="#4180C1" transform="translate(196,75)"/>
<path d="M0 0 C0 2.64 0 5.28 0 8 C-3.16115776 6.63016497 -3.9927092 6.0109362 -6 3 C-5.34 3 -4.68 3 -4 3 C-4 2.34 -4 1.68 -4 1 C-2 0 -2 0 0 0 Z " fill="#357BBC" transform="translate(168,67)"/>
<path d="M0 0 C4.59306496 1.4859916 7.43569245 3.85014682 11 7 C10.67 7.99 10.34 8.98 10 10 C2.51708428 3.84965831 2.51708428 3.84965831 0 0 Z " fill="#3D9FD5" transform="translate(57,53)"/>
<path d="M0 0 C2.16874252 0.50603992 3.99967627 0.99983813 6 2 C6 3.98 6 5.96 6 8 C1.3125 4.38671875 1.3125 4.38671875 0 3 C0 2.01 0 1.02 0 0 Z " fill="#3C7EBF" transform="translate(160,149)"/>
<path d="M0 0 C6.45889213 1.34052478 6.45889213 1.34052478 9 4.4375 C10 7 10 7 9 10 C8.443125 9.278125 7.88625 8.55625 7.3125 7.8125 C5.02090666 5.02542701 2.58540143 2.51358472 0 0 Z " fill="#4AA9D6" transform="translate(90,85)"/>
<path d="M0 0 C2.97 0 5.94 0 9 0 C7.11656068 3.76687864 6.30867531 4.79421646 3 7 C3.33 5.02 3.66 3.04 4 1 C2.68 0.67 1.36 0.34 0 0 Z " fill="#3675B2" transform="translate(259,6)"/>
<path d="M0 0 C0 3 0 3 -2 6 C-2.66 6 -3.32 6 -4 6 C-4 6.66 -4 7.32 -4 8 C-5.98 8.66 -7.96 9.32 -10 10 C-6.92118304 6.12948725 -3.99926986 2.97088618 0 0 Z " fill="#4EABD5" transform="translate(43,146)"/>
<path d="M0 0 C1.12894876 0.93274109 2.25300876 1.87140122 3.375 2.8125 C4.00148437 3.33457031 4.62796875 3.85664062 5.2734375 4.39453125 C7 6 7 6 9 9 C6 9 6 9 3.375 6.75 C1.12323358 4.14269152 0.61527671 3.19943889 0 0 Z " fill="#45A8DD" transform="translate(137,56)"/>
<path d="M0 0 C0.66 0.99 1.32 1.98 2 3 C-0.52956528 6.0916909 -3.22454612 6.90931332 -7 8 C-6.02133662 6.85373678 -5.04205413 5.70800212 -4.0625 4.5625 C-3.51722656 3.92441406 -2.97195312 3.28632812 -2.41015625 2.62890625 C-1.63204305 1.73008851 -0.84063472 0.84063472 0 0 Z " fill="#51AFDD" transform="translate(73,117)"/>
<path d="M0 0 C0 1.65 0 3.3 0 5 C-1.65 5.33 -3.3 5.66 -5 6 C-5 5.01 -5 4.02 -5 3 C-1.55555556 0 -1.55555556 0 0 0 Z " fill="#3277BB" transform="translate(152,127)"/>
<path d="M0 0 C0.66 0.33 1.32 0.66 2 1 C0.02 3.97 0.02 3.97 -2 7 C-3.32 6.67 -4.64 6.34 -6 6 C-4.02 4.02 -2.04 2.04 0 0 Z " fill="#578FC2" transform="translate(168,110)"/>
<path d="M0 0 C5.66710699 1.31793186 7.66437233 3.48709197 11 8 C7.24026115 8 6.54322371 7.03457593 3.8125 4.5625 C3.09707031 3.92441406 2.38164063 3.28632812 1.64453125 2.62890625 C1.10183594 2.09136719 0.55914062 1.55382812 0 1 C0 0.67 0 0.34 0 0 Z " fill="#49A8D4" transform="translate(73,69)"/>
<path d="M0 0 C0.6875 1.8125 0.6875 1.8125 1 4 C-0.64504011 6.46756016 -1.80299352 6.94960299 -4.6875 7.6875 C-5.8321875 7.8421875 -5.8321875 7.8421875 -7 8 C-6.02133662 6.85373678 -5.04205413 5.70800212 -4.0625 4.5625 C-3.51722656 3.92441406 -2.97195312 3.28632813 -2.41015625 2.62890625 C-1.63204305 1.73008851 -0.84063472 0.84063472 0 0 Z " fill="#447EBC" transform="translate(178,18)"/>
<path d="M0 0 C2.97 0.495 2.97 0.495 6 1 C4.35 2.65 2.7 4.3 1 6 C1 5.34 1 4.68 1 4 C0.34 3.67 -0.32 3.34 -1 3 C-0.67 2.01 -0.34 1.02 0 0 Z " fill="#246BB7" transform="translate(251,16)"/>
<path d="M0 0 C1.17539996 0.92652701 2.34010577 1.86663387 3.5 2.8125 C4.1496875 3.33457031 4.799375 3.85664062 5.46875 4.39453125 C7 6 7 6 7 9 C0.70535714 4.17857143 0.70535714 4.17857143 0 0 Z " fill="#5891C4" transform="translate(187,103)"/>
<path d="M0 0 C1.17539996 0.92652701 2.34010577 1.86663387 3.5 2.8125 C4.1496875 3.33457031 4.799375 3.85664063 5.46875 4.39453125 C7 6 7 6 7 9 C0.70535714 4.17857143 0.70535714 4.17857143 0 0 Z " fill="#3DA0D4" transform="translate(87,9)"/>
<path d="M0 0 C1.32 0 2.64 0 4 0 C2.63016497 3.16115776 2.0109362 3.9927092 -1 6 C-1.625 4.125 -1.625 4.125 -2 2 C-1.34 1.34 -0.68 0.68 0 0 Z " fill="#45AEDA" transform="translate(134,129)"/>
<path d="M0 0 C2 2 2 2 2 5 C0.35 4.67 -1.3 4.34 -3 4 C-3 3.01 -3 2.02 -3 1 C-2.01 0.67 -1.02 0.34 0 0 Z " fill="#0261C0" transform="translate(261,174)"/>
<path d="M0 0 C2.31 1.98 4.62 3.96 7 6 C6.34 6.66 5.68 7.32 5 8 C2.5 5.6875 2.5 5.6875 0 3 C0 2.01 0 1.02 0 0 Z " fill="#3E7ABB" transform="translate(247,160)"/>
<path d="M0 0 C1.32 0 2.64 0 4 0 C2.63016497 3.16115776 2.0109362 3.9927092 -1 6 C-1.042721 4.33388095 -1.04063832 2.66617115 -1 1 C-0.67 0.67 -0.34 0.34 0 0 Z " fill="#266DB7" transform="translate(235,33)"/>
<path d="M0 0 C1.32 0 2.64 0 4 0 C2.63016497 3.16115776 2.0109362 3.9927092 -1 6 C-1.042721 4.33388095 -1.04063832 2.66617115 -1 1 C-0.67 0.67 -0.34 0.34 0 0 Z " fill="#4285BF" transform="translate(243,26)"/>
<path d="M0 0 C0.99 0 1.98 0 3 0 C1.60667426 3.36720387 0.0210714 4.9859524 -3 7 C-3 5.68 -3 4.36 -3 3 C-2.01 3 -1.02 3 0 3 C0 2.01 0 1.02 0 0 Z " fill="#56B0D6" transform="translate(156,109)"/>
<path d="M0 0 C3.91402949 1.26941497 5.79072873 2.51167694 8 6 C5 6 5 6 3.61328125 4.6875 C2.40885417 3.125 1.20442708 1.5625 0 0 Z " fill="#3774B8" transform="translate(168,75)"/>
<path d="M0 0 C2.31 1.98 4.62 3.96 7 6 C6.34 6.66 5.68 7.32 5 8 C0 2.25 0 2.25 0 0 Z " fill="#59B6DA" transform="translate(152,70)"/>
<path d="M0 0 C0 1.65 0 3.3 0 5 C-1.9375 4.6875 -1.9375 4.6875 -4 4 C-4.33 3.01 -4.66 2.02 -5 1 C-1.125 0 -1.125 0 0 0 Z " fill="#2A6FBB" transform="translate(164,65)"/>
<path d="M0 0 C2.64 0.33 5.28 0.66 8 1 C7.01 1.495 7.01 1.495 6 2 C6 2.99 6 3.98 6 5 C2.83884224 3.63016497 2.0072908 3.0109362 0 0 Z " fill="#518DC5" transform="translate(179,169)"/>
<path d="M0 0 C1.32 0.33 2.64 0.66 4 1 C4 1.66 4 2.32 4 3 C5.32 3.66 6.64 4.32 8 5 C7.34 5.66 6.68 6.32 6 7 C4.02 4.69 2.04 2.38 0 0 Z " fill="#3B9ED2" transform="translate(39,36)"/>
<path d="M0 0 C1.65 0 3.3 0 5 0 C5.33 1.98 5.66 3.96 6 6 C3.97945196 4.35830472 1.97956942 2.69088222 0 1 C0 0.67 0 0.34 0 0 Z " fill="#61B6DD" transform="translate(15,14)"/>
</svg>
